:SAMPLES-PER-SECOND 30
:FRAME-RANGE 1-2775
:FULLY-SPECIFIED
:DEGREES
2342
root  49.6146 39.2451 3.74204 -175.581 22.5889 -177.162
RightUpLeg  -8.71786 -1.60824 3.46675
RightLeg  18.6494 5.01929 1.36592
RightFoot  -13.2179 -0.0777876 0.714407
RightToes  1.218e-010 1.26228e-014 -6.01869e-014
Spine  -3.68604 1.73985 7.98234
Spine1  8.95047 1.94512 -0.576744
HEad  18.2821 23.9404 3.53172
LeftShoulder1  -0.438533 4.83544 -22.4827
LeftArm  -7.77629 33.9757 -52.8988
LeftForeArm  41.6796 3.64057 -12.3083
LeftHand  -0.036253 5.55465 -0.720711
RightShoulder  0.963998 -0.45275 27.6852
RightArm  -33.4189 -5.43421 46.8941
RightForeArm  75.2635 -4.27564 -1.31321
RightHand  0.442322 -9.0474 -14.7814
LeftUpLeg  -25.0946 4.7651 2.29416
LeftLeg  48.1313 8.09061 9.96655
LeftFoot  -4.41174 0.232215 -3.39766
LeftToes  5.08156e-010 -6.90346e-011 -6.33378e-011
2343
root  50.1158 39.2545 2.48698 -175.859 23.2318 -177.782
RightUpLeg  -6.07703 -1.66528 2.78167
RightLeg  17.988 5.66531 1.31249
RightFoot  -14.7258 -0.0895437 0.342205
RightToes  1.218e-010 1.26228e-014 -6.01869e-014
Spine  -3.97574 2.24891 7.50143
Spine1  9.08379 2.51267 -1.32509
HEad  18.9057 23.189 3.8157
LeftShoulder1  -0.489387 5.00845 -22.5617
LeftArm  -8.65457 35.7087 -53.1608
LeftForeArm  42.5262 4.23985 -12.1319
LeftHand  -0.03659 5.58586 -0.654522
RightShoulder  1.07116 -0.0995791 27.3214
RightArm  -30.7351 -1.7889 47.9429
RightForeArm  74.4541 -4.57633 0.246954
RightHand  0.440853 -8.79836 -15.7295
LeftUpLeg  -26.8797 4.69335 1.09039
LeftLeg  39.2319 9.43228 8.52713
LeftFoot  -3.5553 0.196318 -2.57098
LeftToes  5.08156e-010 -6.90346e-011 -6.33378e-011
2344
root  50.6099 39.2297 1.21281 -176.104 23.8315 -178.385
RightUpLeg  -3.26929 -1.89016 2.05214
RightLeg  16.9946 6.10013 1.22981
RightFoot  -16.105 -0.0865067 0.540337
RightToes  1.218e-010 1.26228e-014 -6.01869e-014
Spine  -4.54702 2.53213 6.62636
Spine1  9.53402 2.80413 -1.7486
HEad  19.3173 23.0463 3.72747
LeftShoulder1  -0.479921 4.98661 -22.3612
LeftArm  -9.55407 37.0594 -53.423
LeftForeArm  43.0246 4.72481 -11.9197
LeftHand  -0.0372255 5.6524 -1.03887
RightShoulder  1.15258 0.189997 26.8859
RightArm  -27.8656 2.12971 48.9397
RightForeArm  73.4404 -4.87823 1.78358
RightHand  0.438561 -8.588 -16.6042
LeftUpLeg  -27.2495 4.43177 0.179381
LeftLeg  27.9454 11.3044 6.76362
LeftFoot  -1.66607 0.27322 -3.1102
LeftToes  5.08156e-010 -6.90346e-011 -6.33378e-011
2345
root  51.1036 39.1783 -0.0842646 -176.27 24.535 -178.821
RightUpLeg  -0.379709 -1.97001 1.35042
RightLeg  15.761 6.76466 1.17683
RightFoot  -17.2657 -0.106588 0.19768
RightToes  1.218e-010 1.26228e-014 -6.01869e-014
Spine  -5.22218 2.64265 5.55868
Spine1  10.1102 2.91905 -1.92376
HEad  19.6316 23.4284 3.58947
LeftShoulder1  -0.452819 4.89586 -22.2817
LeftArm  -9.79753 38.0291 -53.1232
LeftForeArm  43.5308 4.9222 -11.8366
LeftHand  -0.0386685 5.80225 -1.1642
RightShoulder  1.22637 0.469055 26.4
RightArm  -25.0253 5.99562 49.9487
RightForeArm  72.1354 -5.16072 3.1541
RightHand  0.421822 -8.30275 -17.4788
LeftUpLeg  -26.4382 2.9071 0.107934
LeftLeg  15.4967 15.4078 5.04577
LeftFoot  -0.841216 0.318767 -3.41441
LeftToes  5.08156e-010 -6.90346e-011 -6.33378e-011
2346
root  51.5871 39.0692 -1.41011 -176.54 25.4971 -179.085
RightUpLeg  2.63934 -1.4454 0.749473
RightLeg  14.6203 7.40707 1.06246
RightFoot  -18.4844 -0.138906 -0.221971
RightToes  1.218e-010 1.26228e-014 -6.01869e-014
Spine  -5.85234 2.67706 4.65522
Spine1  10.9278 3.06499 -2.23095
HEad  19.8648 23.9576 3.72692
LeftShoulder1  -0.408992 4.74793 -22.1555
LeftArm  -9.28917 38.4206 -52.4005
LeftForeArm  44.1191 4.90135 -11.9393
LeftHand  -0.039031 5.91107 -1.11587
RightShoulder  1.31304 0.805673 25.8417
RightArm  -22.1591 9.84787 51.0238
RightForeArm  69.877 -5.4566 4.39911
RightHand  0.394292 -7.95148 -18.5205
LeftUpLeg  -25.0571 0.738238 0.779522
LeftLeg  3.63415 19.093 2.29383
LeftFoot  -1.21393 0.361787 -4.00069
LeftToes  5.08156e-010 -6.90346e-011 -6.33378e-011
2347
root  52.0488 38.8808 -2.77202 -176.816 26.5764 -179.29
RightUpLeg  5.17279 0.0536043 0.285779
RightLeg  14.63 6.97148 1.01266
RightFoot  -19.9112 -0.131778 0.0394892
RightToes  1.218e-010 1.26228e-014 -6.01869e-014
Spine  -6.33555 2.63742 3.95213
Spine1  11.5434 3.20756 -2.68488
HEad  20.3028 24.5299 3.91752
LeftShoulder1  -0.359877 4.58049 -22.0174
LeftArm  -8.60287 37.9777 -51.411
LeftForeArm  45.0245 5.1735 -12.0053
LeftHand  -0.0405452 6.10269 -0.99267
RightShoulder  1.42287 1.24201 25.182
RightArm  -19.9084 13.2695 52.3155
RightForeArm  67.4293 -5.3361 5.25997
RightHand  0.342419 -7.50111 -19.503
LeftUpLeg  -24.5737 -0.222293 0.882384
LeftLeg  -3.58861 18.714 1.01173
LeftFoot  -4.23559 0.256631 -3.72345
LeftToes  5.08156e-010 -6.90346e-011 -6.33378e-011
2348
root  52.4921 38.5494 -4.22303 -176.993 26.9941 -178.855
RightUpLeg  6.98822 2.03433 0.469224
RightLeg  16.9349 5.76279 1.39678
RightFoot  -21.6524 -0.102654 0.486927
RightToes  1.218e-010 1.26228e-014 -6.01869e-014
Spine  -6.01154 2.39964 3.87826
Spine1  11.0109 2.89791 -2.62559
HEad  20.4427 25.1687 3.98812
LeftShoulder1  -0.284414 4.32124 -21.7722
LeftArm  -7.75601 36.5657 -50.3404
LeftForeArm  45.7138 5.94662 -12.1
LeftHand  -0.0377739 6.18612 -0.501728
RightShoulder  1.45435 1.42112 24.6425
RightArm  -18.1335 16.2267 53.6759
RightForeArm  65.5869 -2.31645 6.2667
RightHand  0.284222 -7.08986 -20.1587
LeftUpLeg  -25.9389 -0.0341929 1.10552
LeftLeg  -1.04329 16.2937 1.51285
LeftFoot  -6.41404 0.322299 -6.59345
LeftToes  5.08156e-010 -6.90346e-011 -6.33378e-011
2349
root  52.9343 38.2816 -5.76245 -177.383 27.0014 -178.94
RightUpLeg  8.69108 3.92098 0.32958
RightLeg  19.7026 4.73264 1.66816
RightFoot  -22.5492 0.011099 1.66981
RightToes  1.218e-010 1.26228e-014 -6.01869e-014
Spine  -6.20382 2.28796 3.33203
Spine1  11.1295 2.74393 -2.4791
HEad  19.5481 25.8438 4.1734
LeftShoulder1  -0.123841 3.7519 -21.4385
LeftArm  -6.7309 33.5264 -49.386
LeftForeArm  46.7572 7.43744 -12.2111
LeftHand  -0.036928 6.62193 -0.0679755
RightShoulder  1.46622 1.51879 24.2485
RightArm  -17.1582 17.8215 54.4255
RightForeArm  63.8035 1.49661 7.04028
RightHand  0.220751 -6.72415 -20.153
LeftUpLeg  -27.5558 0.448219 0.492196
LeftLeg  5.24485 13.4856 1.87414
LeftFoot  -1.14596 0.286222 -3.13165
LeftToes  5.08156e-010 -6.90346e-011 -6.33378e-011
2350
root  53.327 38.1614 -7.32677 -178.183 27.8643 -179.978
RightUpLeg  9.41281 5.89017 -0.969644
RightLeg  23.9477 5.17174 2.29306
RightFoot  -22.0709 0.210215 3.83064
RightToes  1.218e-010 1.26228e-014 -6.01869e-014
Spine  -6.12117 2.55747 2.20166
Spine1  11.1453 3.15215 -2.9732
HEad  18.7842 27.5186 4.84267
LeftShoulder1  -0.0601912 3.52314 -21.2241
LeftArm  -5.61268 29.5439 -48.4011
LeftForeArm  48.0304 7.47969 -12.5808
LeftHand  -0.0355737 7.01192 0.175375
RightShoulder  1.55213 1.79162 24.3226
RightArm  -16.4713 18.3299 54.2965
RightForeArm  61.3691 4.6718 7.75975
RightHand  0.115651 -6.10957 -20.3281
LeftUpLeg  -27.6951 -1.20843 -0.622449
LeftLeg  9.57039 14.4457 3.79143
LeftFoot  4.74905 0.0416554 -0.498801
LeftToes  5.08156e-010 -6.90346e-011 -6.33378e-011
2351
root  53.6711 38.0593 -8.95006 -179.333 28.424 178.185
RightUpLeg  7.9244 7.08167 -3.72831
RightLeg  32.0285 7.26065 4.63982
RightFoot  -19.7426 0.374054 6.90998
RightToes  1.218e-010 1.26228e-014 -6.01869e-014
Spine  -6.1678 2.69223 0.688077
Spine1  10.9673 3.35407 -3.27448
HEad  18.0057 29.9055 5.66169
LeftShoulder1  0.0720092 3.04237 -21.3795
LeftArm  -4.50594 24.6718 -47.462
LeftForeArm  48.1173 7.47773 -12.9081
LeftHand  -0.0310086 7.37684 0.499632
RightShoulder  1.66238 2.08192 24.7623
RightArm  -16.6757 18.612 54.0571
RightForeArm  59.1111 5.70915 7.87087
RightHand  0.000734613 -5.44443 -21.1248
LeftUpLeg  -27.5579 -1.50235 -2.52578
LeftLeg  14.5113 14.7556 4.65871
LeftFoot  5.59342 0.111849 -0.979858
LeftToes  5.08156e-010 -6.90346e-011 -6.33378e-011
